PathFileType	4	(X/Y/Z)	S00_P01_T02_Participants1-2_P1_0-100.trc
DataRate	CameraRate	NumFrames	NumMarkers	Units	OrigDataRate	OrigDataStartFrame	OrigNumFrames
60	60	8	21	m	60	50	100
Frame#	Time	RHip			RKnee			RAnkle			RBigToe			RSmallToe			RHeel			LHip			LKnee			LAnkle			LBigToe			LSmallToe			LHeel			Neck			Head			Nose			RShoulder			RElbow			RWrist			LShoulder			LElbow			LWrist		
		X1	Y1	Z1	X2	Y2	Z2	X3	Y3	Z3	X4	Y4	Z4	X5	Y5	Z5	X6	Y6	Z6	X7	Y7	Z7	X8	Y8	Z8	X9	Y9	Z9	X10	Y10	Z10	X11	Y11	Z11	X12	Y12	Z12	X13	Y13	Z13	X14	Y14	Z14	X15	Y15	Z15	X16	Y16	Z16	X17	Y17	Z17	X18	Y18	Z18	X19	Y19	Z19	X20	Y20	Z20	X21	Y21	Z21
51	0.85	-1.0509739054997904	0.9046734439219729	-0.9743949371840954	-0.8757761520409361	0.8940479969298749	-0.7313880538034345	-0.8584150248383101	0.8602768443853664	-0.9637480106352444	-0.7549323975599451	0.8536860613414226	-1.0321468186700726	-0.7777818130612486	0.8331332608239918	-1.0277068132671685	-0.8764970884434802	0.8645243717082877	-1.0082055002525614	-1.0515318318625382	0.9052916235720578	-1.1185723816649595	-0.8779921577049734	0.896537302027698	-1.3568072870836467	-0.8896811890552132	0.8744727017952475	-1.123938457232262	-0.7891684524829968	0.8662628634186362	-1.057997654743934	-0.8129002508963216	0.8464717375246925	-1.0618710985400224	-0.9114930114840689	0.8811134860634148	-1.0793543858044128	-1.0726644940533687	1.314635779653276	-1.045874134744756	-1.0378081580638105	1.4722424630685	-1.0580963827160228	-0.9873898229886995	1.3777992819865328	-1.0445123714454883	-1.0798822273736246	1.2615674433913757	-0.9139048506973556	-1.04387447238075	1.099557458326472	-0.8100915650436361	-0.9061194694495163	0.9912489995327818	-0.8929866398608951	-1.080806044862767	1.2626414782194384	-1.1783728385715302	-1.0443533161922762	1.0902956147195177	-1.2646938300155335	-0.904509671586576	1.0021636202921107	-1.1577479498105079
52	0.8666666666666667	-1.0509692888439655	0.901743952001636	-0.9743993724089114	-0.8757704014024201	0.8911191356075132	-0.7313981706251957	-0.8572496231995316	0.8568487405548392	-0.9636062234819299	-0.7534427787144511	0.8501911478203175	-1.0314986124774437	-0.7762986485414901	0.8296314411248585	-1.027122896660048	-0.8751318172999147	0.8609918871772404	-1.0081537928888822	-1.0515278013229925	0.9023624046562827	-1.1185765075409966	-0.8779897902543691	0.8936092293858023	-1.3568138987735947	-0.8896776578398822	0.8715441188862527	-1.123945356197617	-0.7891647151958915	0.8633344708649039	-1.0580068017718933	-0.8128964983634868	0.8435434256872898	-1.0618797528228812	-0.9114892080361814	0.878184725080316	-1.0793611077629337	-1.0726588072907004	1.3117032281785135	-1.045881710806477	-1.0377939897874906	1.4693185824351218	-1.0580894463635486	-0.9873842072319752	1.374866612011175	-1.0445215784976551	-1.079876344820637	1.2586349961666794	-0.9139105777780214	-1.0441252594517414	1.097808397756814	-0.8084518083592084	-0.907681510103563	0.9876492757494052	-0.8911040875346286	-1.0808010188900978	1.259709713105242	-1.178380893872413	-1.0443495086059609	1.0873655379871574	-1.2647002105998517	-0.9045536875666416	0.9976795310769334	-1.1591873499145973
53	0.8833333333333333	-1.0509649348492762	0.8989799528254727	-0.9744035512843543	-0.8757649755350777	0.8883557292775696	-0.7314077278847311	-0.8561502937187089	0.8536152934394423	-0.9634665199123309	-0.7520396240060774	0.8468958020544932	-1.0308796045249218	-0.7749013125398376	0.8263294588172885	-1.0265645550704994	-0.8738434509481187	0.8576599125839001	-1.0080980107512003	-1.0515240006374156	0.8995986626661807	-1.1185803857101493	-0.877987556361307	0.8908465668965581	-1.3568201147619232	-0.8896743256455554	0.8687809757303461	-1.1239518573608074	-0.7891611873105198	0.8605715066563316	-1.0580154310358263	-0.812892955957272	0.8407805377425848	-1.0618879165877235	-0.911485619385552	0.875421414149232	-1.0793674434257698	-1.0726534575733566	1.3089363427281056	-1.0458888182160389	-1.0377806178915034	1.4665598634540498	-1.0580828774270254	-0.9873789252928403	1.3720996141191553	-1.0445302285497329	-1.0798708074313434	1.2558682098437628	-0.9139159569297128	-1.0443643003222696	1.0961735901605891	-0.8069144737400598	-0.9091700926442324	0.9842696538448894	-0.8893025177250197	-1.0807962915318545	1.256943568924096	-1.1783884451360513	-1.044345924159595	1.084600986083668	-1.2647061928327417	-0.904609367157622	0.9934585000702488	-1.1605557651483263
54	0.9	-1.0509608664926424	0.8963962844058381	-0.9744074525344332	-0.8757599035450263	0.8857726131394953	-0.7314166720930857	-0.8551229181460716	0.8505936897421182	-0.9633307309959526	-0.7507300748847955	0.843817337613512	-1.0302944808468457	-0.7735969644953354	0.8232446851584772	-1.0260361460279384	-0.8726389733480349	0.8545461735004347	-1.0080397271389374	-1.0515204497526522	0.8970152343081089	-1.118583998149175	-0.8779854679890948	0.8882641458404088	-1.3568259058500647	-0.8896712103902161	0.8661981060446773	-1.1239579273729592	-0.7891578880320586	0.8579888036669907	-1.058023496439146	-0.8128896429856076	0.8381979061357832	-1.0618955463493838	-0.9114822647546842	0.8728383878438978	-1.0793733600558033	-1.072648470650484	1.3063499767384417	-1.0458954264346267	-1.0377681148671798	1.4639811183664064	-1.0580767157981348	-0.9873740024144961	1.3695131424661713	-1.044538282057479	-1.0798656425058184	1.2532819371840926	-0.9139209639029376	-1.0445898545528565	1.0946589509108786	-0.8054861719388592	-0.9105744552418218	0.9811258033855138	-0.8875963782237902	-1.0807918853973613	1.2543578952538363	-1.1783954609684113	-1.0443425805246151	1.0820168001721417	-1.2647117516991049	-0.9046738327102569	0.9895215396233756	-1.1618438527619843
55	0.9166666666666666	-1.0509571052433786	0.8940068204352181	-0.9744110563384258	-0.8757552126643108	0.8833836582818735	-0.7314249530155279	-0.8541729835125095	0.8477999770611808	-0.963200679130758	-0.7495207549838265	0.8409718988624859	-1.029747757829668	-0.7723922499817232	0.8203933206713192	-1.0255418790378366	-0.8715249093328022	0.8516672214860986	-1.0079805441654572	-1.0515171673007293	0.8946259920599579	-1.1185873282336185	-0.8779835363488073	0.8858758336591326	-1.3568312451072808	-0.8896683288551827	0.8638093795357796	-1.123963535174551	-0.7891548353664773	0.8556002308279335	-1.0580309548861604	-0.8128865775531041	0.8358093993949038	-1.0619026014631678	-0.9114791621371527	0.8704495166674644	-1.0793788271380835	-1.0726438703352652	1.3039580183120094	-1.0459015075958904	-1.0377565485781668	1.461596197029892	-1.0580709991713562	-0.9873694619221751	1.3671210858391696	-1.0445457026753409	-1.0798608753598067	1.250890065645827	-0.913925576416104	-1.0448002548955893	1.0932697371477267	-0.8041728527980336	-0.9118842844810013	0.9782318617012717	-0.8859996084422556	-1.0807878213844337	1.2519665766019887	-1.178401912854261	-1.0443394941037163	1.0796268569064318	-1.2647168644498148	-0.9047441285322505	0.9858880700857383	-1.1630427228232594
56	0.9333333333333333	-1.0509536709518694	0.8918243949968172	-0.9744143444195194	-0.8757509280876284	0.881201696517547	-0.7314325239904509	-0.8533055540319002	0.8452489812005132	-0.9630781448782059	-0.7484177442547695	0.8383743823480273	-1.0292437288772427	-0.7712932736386146	0.817790315739777	-1.025085763903521	-0.8705072892094168	0.8490383485486207	-1.0079220565077407	-1.0515141705039603	0.8924437688868567	-1.118590360775455	-0.8779817718354755	0.8836944586909976	-1.356836107934332	-0.8896656965902439	0.8616276266253993	-1.1239686521353522	-0.789152046014338	0.8534186178545995	-1.0580377665134384	-0.8128837764537776	0.8336278468607927	-1.0619090443407773	-0.9114763281977295	0.8682676317749375	-1.0793838165226608	-1.0726396784343473	1.3017733148518518	-1.0459070365048397	-1.037745981875501	1.4594179117034642	-1.0580657627495684	-0.9873653251583336	1.3649362922845911	-1.0445524573149814	-1.0798565292346831	1.248705442024686	-0.9139297741872789	-1.0449939258986158	1.092010580945347	-0.8029798136441206	-0.9130898301089103	0.9756004420471798	-0.8845254591434545	-1.0807841186203357	1.249782457057078	-1.1784077751273991	-1.0443366800509106	1.0774439931097834	-1.264721510584249	-0.9048172933687801	0.982575855086054	-1.1641440258008044
57	0.95	-1.0509505817293119	0.8898607223150224	-0.974417300142908	-0.8757470728414273	0.8792384398871459	-0.7314393422670508	-0.8525252415969751	0.8429542174364234	-0.9629648336815912	-0.7474265512651986	0.8360383518245825	-1.0287864103155808	-0.7703055703198116	0.8154492848843442	-1.0246715583719752	-0.8695916116895303	0.8466734954613628	-1.0078658151673003	-1.0515114750720265	0.8904802779972839	-1.1185930820703465	-0.8779801839590956	0.8817317299483284	-1.3568404721410028	-0.8896633278117884	0.8596645582177963	-1.1239732522076618	-0.7891495352573814	0.8514556750159984	-1.058043894937404	-0.8128812550565387	0.8316649584590605	-1.0619148406817405	-0.9114737781650343	0.866304444736757	-1.0793883025803603	-1.0726359146656699	1.299807592730916	-1.0459119906540595	-1.0377364721883038	1.4574579568817438	-1.0580610389416516	-0.9873616114063483	1.36297048877131	-1.0445585162232234	-1.079852625195676	1.2467397921298164	-0.9139335389794361	-1.0451694012134138	1.090885513054033	-0.8019117143363165	-0.9141820131591538	0.9732426498200061	-0.8831863227207244	-1.0807807943922643	1.2478172599761337	-1.1784130249593794	-1.0443341520347702	1.075479925530694	-1.2647256718451292	-0.9048904318246225	0.9796009379551242	-1.1651400340619902
58	0.9666666666666667	-1.050947853874724	0.8881263472532697	-0.9744199085698035	-0.8757436676544856	0.877504431410234	-0.7314453692320281	-0.8518361886593969	0.8409278383129848	-0.9628623451411445	-0.7465521010005237	0.8339759906317719	-1.0283794955816596	-0.7694340916661829	0.8133824584193452	-1.0243027233679067	-0.8687828214534482	0.8445851976945173	-1.0078132930001529	-1.0515090951400534	0.8887460633438101	-1.1185954799060245	-0.8779787812995902	0.8799981876280529	-1.3568443179599727	-0.8896612353372706	0.8579307162052163	-1.1239773120097243	-0.7891473168839364	0.8497219436401555	-1.0580493074066792	-0.8128790272296894	0.8299312752074066	-1.061919959614929	-0.9114715257633151	0.8645704980423746	-1.079392262290279	-1.072632596631847	1.2980714077409765	-1.0459163501705868	-1.0377280712635106	1.4557268598204776	-1.0580568571398004	-0.9873583378689027	1.3612342316345094	-1.0445638529723933	-1.07984918208832	1.2450036712379464	-0.9139368545925083	-1.045325339019063	1.0898980069616355	-0.8009726025946794	-0.9151525217725394	0.971168138768565	-0.8819935828376553	-1.0807778641266517	1.246081538443634	-1.178417642275528	-1.044331922287799	1.0737452013143676	-1.264729332158562	-0.9049607834351195	0.976977618303817	-1.1660237110886624
